# xmcd
#
# Track frame offsets:
#	150
#	15323
#	29346
#	45345
#	58344
#	72688
#	89484
#	109115
#	122600
#	135292
#
# Disc length: 2050 seconds
#
# Revision: 0
# Processed by: cddbd v1.5.2PL0 Copyright (c) Steve Scherf et al.
# Submitted via: audiograbber 1.83.01
#
DISCID=8208000a
DTITLE=Manon Desrosiers - L'amour Éternel
DYEAR=1900
DGENRE=Country
TTITLE0=J'attendais Ton Appel(André Sylvain-André Sylvain)
TTITLE1=Une Bière S.V.P.(Mariette Croteau-Mariette Corteau)
TTITLE2=L'amour Éternel(Manon Desrosiers-Manon Desrosiers)
TTITLE3=Love's Gonna Live Here Again(Buck Owens-Buck Owens)
TTITLE4=Dis-Moi Papa(Daniel Nut Brown-Daniel Nut Brown)
TTITLE5=Le Temps Passe(Manon Desrosiers-Manon Desrosiers)
TTITLE6=L'enfant Abandonné(Manon Desroisiers-Manon Desrosiers)
TTITLE7=Chanter Sans M'arrêter(Proud Mary)(John Fogerty-John Fogerty)
TTITLE8=Je N'ai Que Mon Âme(Robert Goldman-Robert Goldman)
TTITLE9=Don't Toss Us Away(Bryan McLean-Bryan McLean)
EXTD=
EXTT0=
EXTT1=
EXTT2=
EXTT3=
EXTT4=
EXTT5=
EXTT6=
EXTT7=
EXTT8=
EXTT9=
PLAYORDER=
